SplineFontDB: 3.0
FontName: Untitled3
FullName: Untitled3
FamilyName: Untitled3
Weight: Regular
Copyright: Copyright (c) 2015, sylvain,,,
UComments: "2015-4-4: Created with FontForge (http://fontforge.org)"
Version: 001.000
ItalicAngle: 0
UnderlinePosition: -179
UnderlineWidth: 90
Ascent: 1434
Descent: 358
InvalidEm: 0
LayerCount: 2
Layer: 0 0 "Back" 1
Layer: 1 0 "Fore" 0
XUID: [1021 912 -309187915 8800720]
StyleMap: 0x0000
FSType: 0
OS2Version: 0
OS2_WeightWidthSlopeOnly: 0
OS2_UseTypoMetrics: 1
CreationTime: 1428196570
ModificationTime: 1435958856
OS2TypoAscent: 0
OS2TypoAOffset: 1
OS2TypoDescent: 0
OS2TypoDOffset: 1
OS2TypoLinegap: 161
OS2WinAscent: 0
OS2WinAOffset: 1
OS2WinDescent: 0
OS2WinDOffset: 1
HheadAscent: 0
HheadAOffset: 1
HheadDescent: 0
HheadDOffset: 1
OS2Vendor: 'PfEd'
DEI: 91125
Encoding: UnicodeFull
UnicodeInterp: none
NameList: AGL For New Fonts
DisplaySize: -48
AntiAlias: 1
FitToEm: 1
WinInfo: 57267 27 9
BeginChars: 1114112 38

StartChar: uniE000
Encoding: 57344 57344 0
Width: 1664
Flags: HW
LayerCount: 2
Fore
SplineSet
45 -115 m 2
 32 -128 22 -132 13 -128 c 128
 4 -124 0 -113 0 -96 c 2
 0 1376 l 2
 0 1393 4 1404 13 1408 c 128
 22 1412 32 1408 45 1395 c 2
 755 685 l 2
 760 680 765 673 768 666 c 1
 768 1376 l 2
 768 1393 772 1404 781 1408 c 128
 790 1412 800 1408 813 1395 c 2
 1523 685 l 2
 1536 672 1542 657 1542 640 c 128
 1542 623 1536 608 1523 595 c 2
 813 -115 l 2
 800 -128 790 -132 781 -128 c 128
 772 -124 768 -113 768 -96 c 2
 768 614 l 1
 765 607 760 601 755 595 c 2
 45 -115 l 2
EndSplineSet
Validated: 1
EndChar

StartChar: uniE009
Encoding: 57353 57353 1
Width: 1536
Flags: HW
LayerCount: 2
Fore
SplineSet
1536 1344 m 2
 1536 -64 l 2
 1536 -81 1530 -96 1517 -109 c 128
 1504 -122 1489 -128 1472 -128 c 2
 64 -128 l 2
 47 -128 32 -122 19 -109 c 128
 6 -96 0 -81 0 -64 c 2
 0 1344 l 2
 0 1361 6 1376 19 1389 c 128
 32 1402 47 1408 64 1408 c 2
 1472 1408 l 2
 1489 1408 1504 1402 1517 1389 c 128
 1530 1376 1536 1361 1536 1344 c 2
EndSplineSet
Validated: 1
EndChar

StartChar: uniE00A
Encoding: 57354 57354 2
Width: 1792
VWidth: 0
Flags: H
LayerCount: 2
Fore
SplineSet
256 1024 m 2
 1536 1024 l 2
 1571 1024 1601 1011 1626 986 c 128
 1651 961 1664 931 1664 896 c 2
 1664 0 l 2
 1664 -35 1651 -65 1626 -90 c 128
 1601 -115 1571 -128 1536 -128 c 2
 256 -128 l 2
 221 -128 191 -115 166 -90 c 128
 141 -65 128 -35 128 0 c 2
 128 896 l 2
 128 931 141 961 166 986 c 128
 191 1011 221 1024 256 1024 c 2
256 896 m 1
 256 0 l 1
 1536 0 l 1
 1536 896 l 1
 256 896 l 1
384 768 m 1
 1408 768 l 1
 1408 640 l 1
 384 640 l 1
 384 768 l 1
384 512 m 1
 1408 512 l 1
 1408 384 l 1
 384 384 l 1
 384 512 l 1
384 256 m 1
 1408 256 l 1
 1408 128 l 1
 384 128 l 1
 384 256 l 1
EndSplineSet
Validated: 1
EndChar

StartChar: uniE00B
Encoding: 57355 57355 3
Width: 1792
VWidth: 0
Flags: HW
LayerCount: 2
Fore
SplineSet
404 1665 m 0
 411 1665 420 1660 429 1651 c 2
 1056 1024 l 1
 1152 1024 l 1
 1152 1600 l 2
 1152 1617 1158 1632 1171 1645 c 128
 1184 1658 1199 1664 1216 1664 c 2
 1344 1664 l 2
 1361 1664 1376 1658 1389 1645 c 128
 1402 1632 1408 1617 1408 1600 c 2
 1408 1024 l 1
 1600 1024 l 2
 1652 1024 1697 1005 1735 967 c 128
 1773 929 1792 884 1792 832 c 2
 1792 -64 l 2
 1792 -116 1773 -161 1735 -199 c 128
 1697 -237 1652 -256 1600 -256 c 2
 192 -256 l 2
 140 -256 95 -237 57 -199 c 128
 19 -161 0 -116 0 -64 c 2
 0 832 l 2
 0 884 19 929 57 967 c 128
 95 1005 140 1024 192 1024 c 2
 384 1024 l 1
 384 1632 l 2
 384 1647 388 1658 397 1664 c 0
 399 1665 401 1666 404 1665 c 0
256 768 m 1
 256 0 l 1
 1536 0 l 1
 1536 768 l 1
 1408 768 l 1
 1408 192 l 2
 1408 175 1402 160 1389 147 c 128
 1376 134 1361 128 1344 128 c 2
 1216 128 l 2
 1199 128 1184 134 1171 147 c 128
 1158 160 1152 175 1152 192 c 2
 1152 768 l 1
 1056 768 l 1
 429 141 l 2
 416 128 406 124 397 128 c 128
 388 132 384 143 384 160 c 2
 384 768 l 1
 256 768 l 1
EndSplineSet
Validated: 1
EndChar

StartChar: uniE00C
Encoding: 57356 57356 4
Width: 1792
Flags: H
LayerCount: 2
Fore
SplineSet
429 40 m 2
 416 28 406 23 397 27 c 0
 388 31 384 42 384 59 c 2
 384 1531 l 2
 384 1549 388 1559 397 1563 c 0
 406 1567 416 1563 429 1550 c 2
 1139 840 l 2
 1144 835 1149 829 1152 821 c 1
 1152 1499 l 2
 1152 1517 1158 1532 1171 1544 c 0
 1184 1557 1199 1563 1216 1563 c 2
 1344 1563 l 2
 1361 1563 1376 1557 1389 1544 c 0
 1402 1532 1408 1517 1408 1499 c 2
 1408 91 l 2
 1408 74 1402 59 1389 46 c 0
 1376 34 1361 27 1344 27 c 2
 1216 27 l 2
 1199 27 1184 34 1171 46 c 0
 1158 59 1152 74 1152 91 c 2
 1152 769 l 1
 1149 763 1144 756 1139 750 c 2
 429 40 l 2
EndSplineSet
Validated: 1
EndChar

StartChar: uniE00D
Encoding: 57357 57357 5
Width: 1792
VWidth: 0
Flags: HW
LayerCount: 2
Fore
SplineSet
887 1408 m 0
 952 1408 1016 1403 1080 1393 c 0
 1133 1385 1177 1363 1212 1328 c 128
 1247 1293 1265 1251 1265 1203 c 2
 1265 854 l 2
 1265 803 1247 759 1211 722 c 128
 1175 685 1131 667 1080 667 c 2
 710 667 l 2
 647 667 593 644 547 599 c 128
 501 554 478 501 478 440 c 2
 478 272 l 1
 351 272 l 2
 299 272 257 289 224 322 c 0
 191 356 167 401 154 458 c 0
 137 531 128 594 128 647 c 0
 128 702 137 763 154 831 c 0
 164 870 180 903 203 932 c 0
 227 962 254 983 284 996 c 0
 316 1009 350 1016 386 1016 c 2
 525 1016 l 1
 895 1016 l 1
 895 1063 l 1
 525 1063 l 1
 525 1203 l 2
 525 1230 527 1254 532 1273 c 0
 537 1294 546 1312 558 1327 c 0
 571 1342 590 1356 615 1367 c 0
 638 1377 669 1386 710 1393 c 0
 765 1403 824 1408 887 1408 c 0
686 1296 m 0
 675 1296 664 1293 652 1286 c 0
 641 1279 632 1271 626 1261 c 0
 620 1250 617 1239 617 1226 c 0
 617 1207 624 1190 637 1177 c 0
 651 1163 668 1156 687 1156 c 0
 707 1156 723 1163 736 1176 c 0
 749 1190 756 1207 756 1226 c 0
 756 1233 754 1242 750 1253 c 0
 747 1262 742 1269 736 1275 c 0
 729 1282 722 1287 714 1290 c 0
 705 1294 696 1296 686 1296 c 0
1311 1016 m 1
 1450 1016 l 2
 1501 1016 1541 1000 1570 967 c 0
 1600 934 1622 888 1636 831 c 0
 1655 755 1664 689 1664 632 c 0
 1664 571 1655 513 1636 458 c 0
 1624 423 1614 397 1606 381 c 0
 1595 359 1583 340 1570 324 c 0
 1557 307 1540 294 1519 285 c 0
 1500 276 1477 272 1450 272 c 2
 1265 272 l 1
 895 272 l 1
 895 226 l 1
 1265 226 l 1
 1265 86 l 2
 1265 60 1260 37 1250 17 c 0
 1239 -4 1225 -22 1207 -37 c 128
 1189 -52 1170 -64 1149 -74 c 128
 1128 -84 1105 -93 1080 -100 c 0
 1015 -119 953 -128 892 -128 c 0
 889 -128 889 -128 886 -128 c 0
 835 -128 777 -119 710 -100 c 0
 655 -85 610 -61 576 -30 c 128
 542 1 525 40 525 86 c 2
 525 435 l 2
 525 468 533 499 550 528 c 0
 567 557 589 579 617 596 c 0
 646 613 677 621 710 621 c 2
 1080 621 l 2
 1142 621 1196 644 1242 690 c 128
 1288 736 1311 791 1311 854 c 2
 1311 1016 l 1
1103 133 m 0
 1084 133 1068 126 1054 112 c 0
 1041 99 1034 82 1034 63 c 0
 1034 44 1041 28 1054 14 c 128
 1067 0 1084 -7 1103 -7 c 0
 1121 -7 1137 0 1152 14 c 0
 1166 27 1173 44 1173 63 c 128
 1173 82 1166 99 1152 112 c 128
 1139 126 1122 133 1103 133 c 0
EndSplineSet
Validated: 1
EndChar

StartChar: uniE00E
Encoding: 57358 57358 6
Width: 1792
VWidth: 0
Flags: HW
LayerCount: 2
Fore
SplineSet
887 1408 m 0
 952 1408 1016 1403 1080 1393 c 0
 1133 1385 1177 1363 1212 1328 c 128
 1247 1293 1265 1251 1265 1203 c 2
 1265 854 l 2
 1265 803 1247 759 1211 722 c 128
 1175 685 1131 667 1080 667 c 2
 710 667 l 2
 647 667 593 644 547 599 c 128
 501 554 478 501 478 440 c 2
 478 272 l 1
 351 272 l 2
 299 272 257 289 224 322 c 0
 191 356 167 401 154 458 c 0
 137 531 128 594 128 647 c 0
 128 702 137 763 154 831 c 0
 164 870 180 903 203 932 c 0
 227 962 254 983 284 996 c 0
 316 1009 350 1016 386 1016 c 2
 525 1016 l 1
 895 1016 l 1
 895 1063 l 1
 525 1063 l 1
 525 1203 l 2
 525 1230 527 1254 532 1273 c 0
 537 1294 546 1312 558 1327 c 0
 571 1342 590 1356 615 1367 c 0
 638 1377 669 1386 710 1393 c 0
 765 1403 824 1408 887 1408 c 0
686 1296 m 0
 675 1296 664 1293 652 1286 c 0
 641 1279 632 1271 626 1261 c 0
 620 1250 617 1239 617 1226 c 0
 617 1207 624 1190 637 1177 c 0
 651 1163 668 1156 687 1156 c 0
 707 1156 723 1163 736 1176 c 0
 749 1190 756 1207 756 1226 c 0
 756 1233 754 1242 750 1253 c 0
 747 1262 742 1269 736 1275 c 0
 729 1282 722 1287 714 1290 c 0
 705 1294 696 1296 686 1296 c 0
EndSplineSet
Validated: 1
EndChar

StartChar: uniE00F
Encoding: 57359 57359 7
Width: 1792
VWidth: 0
Flags: HW
LayerCount: 2
Fore
SplineSet
1311 1016 m 1
 1450 1016 l 2
 1501 1016 1541 1000 1570 967 c 0
 1600 934 1622 888 1636 831 c 0
 1655 755 1664 689 1664 632 c 0
 1664 571 1655 513 1636 458 c 0
 1624 423 1614 397 1606 381 c 0
 1595 359 1583 340 1570 324 c 0
 1557 307 1540 294 1519 285 c 0
 1500 276 1477 272 1450 272 c 2
 1265 272 l 1
 895 272 l 1
 895 226 l 1
 1265 226 l 1
 1265 86 l 2
 1265 60 1260 37 1250 17 c 0
 1239 -4 1225 -22 1207 -37 c 128
 1189 -52 1170 -64 1149 -74 c 128
 1128 -84 1105 -93 1080 -100 c 0
 1015 -119 953 -128 892 -128 c 0
 889 -128 889 -128 886 -128 c 0
 835 -128 777 -119 710 -100 c 0
 655 -85 610 -61 576 -30 c 128
 542 1 525 40 525 86 c 2
 525 435 l 2
 525 468 533 499 550 528 c 0
 567 557 589 579 617 596 c 0
 646 613 677 621 710 621 c 2
 1080 621 l 2
 1142 621 1196 644 1242 690 c 128
 1288 736 1311 791 1311 854 c 2
 1311 1016 l 1
1103 133 m 0
 1084 133 1068 126 1054 112 c 0
 1041 99 1034 82 1034 63 c 0
 1034 44 1041 28 1054 14 c 128
 1067 0 1084 -7 1103 -7 c 0
 1121 -7 1137 0 1152 14 c 0
 1166 27 1173 44 1173 63 c 128
 1173 82 1166 99 1152 112 c 128
 1139 126 1122 133 1103 133 c 0
EndSplineSet
Validated: 1
EndChar

StartChar: uniE010
Encoding: 57360 57360 8
Width: 1792
VWidth: 0
Flags: HW
LayerCount: 2
Fore
SplineSet
1233 1390 m 1
 1291 1349 l 1
 1273 1322 1247 1282 1213 1228 c 1
 1501 861 l 1
 1615 908 l 1
 1642 842 l 1
 1616 831 1577 815 1525 793 c 1
 1420 338 l 1
 1431 326 1441 315 1452 304 c 0
 1463 293 1473 284 1480 277 c 0
 1487 270 1494 263 1500 258 c 128
 1506 253 1511 249 1514 246 c 2
 1518 243 l 1
 1474 187 l 1
 1452 204 1425 230 1392 264 c 0
 1390 263 1388 262 1386 261 c 2
 929 42 l 1
 915 -96 l 1
 844 -88 l 1
 847 -59 852 -15 857 45 c 1
 407 267 l 2
 406 267 405 267 404 268 c 0
 387 254 376 245 370 241 c 0
 359 233 349 226 340 219 c 0
 331 213 323 207 315 202 c 0
 308 197 301 192 295 189 c 0
 288 184 283 180 281 179 c 0
 276 176 273 175 271 174 c 2
 268 172 l 1
 234 235 l 1
 270 254 317 288 376 337 c 1
 275 795 l 1
 272 795 250 796 210 797 c 0
 190 798 176 799 169 800 c 2
 158 801 l 1
 170 872 l 1
 171 872 175 871 183 870 c 0
 190 869 204 868 224 867 c 0
 238 866 253 866 270 866 c 0
 278 866 278 866 296 866 c 1
 596 1242 l 1
 591 1279 585 1319 578 1361 c 1
 649 1371 l 1
 654 1337 659 1303 664 1270 c 1
 1153 1268 l 1
 1233 1390 l 1
677 1188 m 1
 695 1077 711 986 724 915 c 1
 968 958 l 1
 1014 1038 1059 1114 1103 1186 c 1
 677 1188 l 1
1167 1155 m 1
 1124 1085 1080 1010 1033 929 c 1
 1148 712 l 1
 1250 755 1342 794 1423 828 c 1
 1167 1155 l 1
614 1132 m 1
 404 870 l 1
 480 874 564 882 656 894 c 1
 643 956 629 1035 614 1132 c 1
975 886 m 1
 730 843 l 1
 695 594 l 1
 919 483 l 1
 1092 664 l 1
 975 886 l 1
655 822 m 1
 545 808 446 799 358 796 c 1
 446 398 l 1
 505 453 563 513 621 580 c 1
 655 822 l 1
1432 754 m 1
 1350 719 1269 685 1190 652 c 1
 1239 567 1294 488 1354 414 c 1
 1432 754 l 1
1135 605 m 1
 960 422 l 1
 952 319 944 224 937 137 c 1
 1333 327 l 1
 1334 328 l 1
 1261 412 1194 504 1135 605 c 1
669 527 m 1
 604 452 538 385 471 326 c 1
 865 132 l 1
 872 219 880 314 888 419 c 1
 669 527 l 1
EndSplineSet
Validated: 1
EndChar

StartChar: uniE011
Encoding: 57361 57361 9
Width: 1792
VWidth: 0
Flags: HW
LayerCount: 2
Fore
SplineSet
688 873 m 2
 707 873 l 2
 754 873 799 852 840 811 c 2
 1034 617 l 2
 1050 601 1072 593 1100 593 c 128
 1127 593 1149 601 1164 616 c 2
 1210 662 l 1
 1210 668 1210 668 1210 674 c 0
 1210 717 1230 759 1271 800 c 0
 1311 841 1354 861 1400 861 c 0
 1426 861 1448 852 1466 834 c 128
 1483 815 1492 796 1492 777 c 0
 1492 726 1472 680 1430 640 c 128
 1390 598 1346 578 1299 578 c 1
 1250 529 l 2
 1209 488 1158 467 1100 467 c 128
 1040 467 990 488 948 530 c 2
 754 724 l 2
 738 740 716 748 688 748 c 0
 661 748 639 740 624 725 c 2
 428 528 l 1
 341 614 l 1
 538 811 l 2
 579 852 629 873 688 873 c 2
EndSplineSet
Validated: 1
EndChar

StartChar: uniE012
Encoding: 57362 57362 10
Width: 1792
VWidth: 0
Flags: HW
LayerCount: 2
Fore
SplineSet
1163 1227 m 1
 1487 812 l 1
 1369 298 l 1
 896 72 l 1
 425 303 l 1
 311 819 l 1
 639 1230 l 1
 1163 1227 l 1
EndSplineSet
Validated: 1
EndChar

StartChar: uniE008
Encoding: 57352 57352 11
Width: 1792
VWidth: 0
Flags: H
LayerCount: 2
Fore
SplineSet
1792 474 m 2
 1792 346 l 2
 1792 329 1786 314 1773 301 c 0
 1760 288 1745 282 1728 282 c 2
 576 282 l 2
 559 282 544 288 531 301 c 0
 518 314 512 329 512 346 c 2
 512 474 l 2
 512 491 518 506 531 519 c 0
 544 532 559 538 576 538 c 2
 1728 538 l 2
 1745 538 1760 532 1773 519 c 0
 1786 506 1792 491 1792 474 c 2
1792 858 m 2
 1792 730 l 2
 1792 713 1786 698 1773 685 c 0
 1760 672 1745 666 1728 666 c 2
 832 666 l 2
 815 666 800 672 787 685 c 0
 774 698 768 713 768 730 c 2
 768 858 l 2
 768 875 774 890 787 903 c 0
 800 916 815 922 832 922 c 2
 1728 922 l 2
 1745 922 1760 916 1773 903 c 0
 1786 890 1792 875 1792 858 c 2
1792 1242 m 2
 1792 1114 l 2
 1792 1097 1786 1082 1773 1069 c 0
 1760 1056 1745 1050 1728 1050 c 2
 576 1050 l 2
 559 1050 544 1056 531 1069 c 0
 518 1082 512 1097 512 1114 c 2
 512 1242 l 2
 512 1259 518 1274 531 1287 c 0
 544 1300 559 1306 576 1306 c 2
 1728 1306 l 2
 1745 1306 1760 1300 1773 1287 c 0
 1786 1274 1792 1259 1792 1242 c 2
128 1690 m 2
 640 1690 l 1
 640 1434 l 1
 256 1434 l 1
 256 239 l 1
 256 154 l 1
 384 154 l 1
 384 346 l 1
 704 26 l 1
 384 -294 l 1
 384 -102 l 1
 128 -102 l 2
 111 -102 95 -99 79 -92 c 0
 64 -86 49 -76 38 -64 c 0
 26 -53 16 -38 10 -23 c 0
 3 -7 0 9 0 26 c 2
 0 239 l 1
 0 1562 l 2
 0 1579 3 1595 10 1611 c 0
 16 1626 26 1641 38 1652 c 0
 49 1664 64 1674 79 1680 c 0
 95 1687 111 1690 128 1690 c 2
EndSplineSet
Validated: 1
EndChar

StartChar: uniE007
Encoding: 57351 57351 12
Width: 1792
VWidth: 0
Flags: H
LayerCount: 2
Fore
SplineSet
576 1306 m 2
 1728 1306 l 2
 1745 1306 1760 1300 1773 1287 c 0
 1786 1274 1792 1259 1792 1242 c 2
 1792 1114 l 2
 1792 1097 1786 1082 1773 1069 c 0
 1760 1056 1745 1050 1728 1050 c 2
 576 1050 l 2
 559 1050 544 1056 531 1069 c 0
 518 1082 512 1097 512 1114 c 2
 512 1242 l 2
 512 1259 518 1274 531 1287 c 0
 544 1300 559 1306 576 1306 c 2
128 922 m 2
 640 922 l 1
 640 666 l 1
 256 666 l 1
 256 239 l 1
 256 154 l 1
 384 154 l 1
 384 346 l 1
 704 26 l 1
 384 -294 l 1
 384 -102 l 1
 128 -102 l 2
 111 -102 95 -99 79 -92 c 0
 64 -86 49 -76 38 -64 c 0
 26 -53 16 -38 10 -23 c 0
 3 -7 0 9 0 26 c 2
 0 239 l 1
 0 794 l 2
 0 811 3 827 10 843 c 0
 16 858 26 873 38 884 c 0
 49 896 64 906 79 912 c 0
 95 919 111 922 128 922 c 2
832 922 m 2
 1728 922 l 2
 1745 922 1760 916 1773 903 c 0
 1786 890 1792 875 1792 858 c 2
 1792 730 l 2
 1792 713 1786 698 1773 685 c 0
 1760 672 1745 666 1728 666 c 2
 832 666 l 2
 815 666 800 672 787 685 c 0
 774 698 768 713 768 730 c 2
 768 858 l 2
 768 875 774 890 787 903 c 0
 800 916 815 922 832 922 c 2
576 538 m 2
 1728 538 l 2
 1745 538 1760 532 1773 519 c 0
 1786 506 1792 491 1792 474 c 2
 1792 346 l 2
 1792 329 1786 314 1773 301 c 0
 1760 288 1745 282 1728 282 c 2
 576 282 l 2
 559 282 544 288 531 301 c 0
 518 314 512 329 512 346 c 2
 512 474 l 2
 512 491 518 506 531 519 c 0
 544 532 559 538 576 538 c 2
EndSplineSet
Validated: 1
EndChar

StartChar: uniE006
Encoding: 57350 57350 13
Width: 1792
VWidth: 0
Flags: H
LayerCount: 2
Fore
SplineSet
1792 474 m 2
 1792 346 l 2
 1792 329 1786 314 1773 301 c 0
 1760 288 1745 282 1728 282 c 2
 576 282 l 2
 559 282 544 288 531 301 c 0
 518 314 512 329 512 346 c 2
 512 474 l 2
 512 491 518 506 531 519 c 0
 544 532 559 538 576 538 c 2
 1728 538 l 2
 1745 538 1760 532 1773 519 c 0
 1786 506 1792 491 1792 474 c 2
1792 858 m 2
 1792 730 l 2
 1792 713 1786 698 1773 685 c 0
 1760 672 1745 666 1728 666 c 2
 832 666 l 2
 815 666 800 672 787 685 c 0
 774 698 768 713 768 730 c 2
 768 858 l 2
 768 875 774 890 787 903 c 0
 800 916 815 922 832 922 c 2
 1728 922 l 2
 1745 922 1760 916 1773 903 c 0
 1786 890 1792 875 1792 858 c 2
1792 1242 m 2
 1792 1114 l 2
 1792 1097 1786 1082 1773 1069 c 0
 1760 1056 1745 1050 1728 1050 c 2
 576 1050 l 2
 559 1050 544 1056 531 1069 c 0
 518 1082 512 1097 512 1114 c 2
 512 1242 l 2
 512 1259 518 1274 531 1287 c 0
 544 1300 559 1306 576 1306 c 2
 1728 1306 l 2
 1745 1306 1760 1300 1773 1287 c 0
 1786 1274 1792 1259 1792 1242 c 2
128 1690 m 2
 640 1690 l 1
 640 1434 l 1
 256 1434 l 1
 256 1007 l 1
 256 922 l 1
 384 922 l 1
 384 1114 l 1
 704 794 l 1
 384 474 l 1
 384 666 l 1
 128 666 l 2
 111 666 95 669 79 676 c 0
 64 682 49 692 38 704 c 0
 26 715 16 730 10 745 c 0
 3 761 0 777 0 794 c 2
 0 1007 l 1
 0 1562 l 2
 0 1579 3 1595 10 1611 c 0
 16 1626 26 1641 38 1652 c 0
 49 1664 64 1674 79 1680 c 0
 95 1687 111 1690 128 1690 c 2
EndSplineSet
Validated: 1
EndChar

StartChar: uniE005
Encoding: 57349 57349 14
Width: 1792
VWidth: 0
Flags: H
LayerCount: 2
Fore
SplineSet
1280 1434 m 0
 1421 1434 1536 1319 1536 1178 c 0
 1536 1037 1421 922 1280 922 c 0
 1139 922 1024 1037 1024 1178 c 0
 1024 1319 1139 1434 1280 1434 c 0
1283 666 m 0
 1426 666 1541 550 1541 407 c 0
 1541 265 1426 149 1283 149 c 0
 1140 149 1024 265 1024 407 c 0
 1024 550 1140 666 1283 666 c 0
384 1306 m 2
 896 1306 l 1
 896 1050 l 1
 512 1050 l 1
 512 538 l 1
 640 538 l 1
 640 666 l 1
 1024 410 l 1
 640 154 l 1
 640 282 l 1
 384 282 l 2
 320 282 256 346 256 410 c 2
 256 1178 l 2
 256 1242 320 1306 384 1306 c 2
EndSplineSet
Validated: 1
EndChar

StartChar: uniE013
Encoding: 57363 57363 15
Width: 1792
VWidth: 0
Flags: H
LayerCount: 2
Fore
SplineSet
640 346 m 2
 640 -102 l 2
 640 -119 634 -134 621 -147 c 0
 608 -160 593 -166 576 -166 c 0
 559 -166 533 -165 531 -147 c 1
 387 -3 l 1
 183 -207 l 2
 176 -214 169 -217 160 -217 c 0
 151 -217 144 -214 137 -207 c 2
 23 -93 l 2
 16 -86 13 -79 13 -70 c 0
 13 -61 16 -54 23 -47 c 2
 227 157 l 1
 83 301 l 2
 70 314 64 329 64 346 c 0
 64 363 70 378 83 391 c 0
 96 404 111 410 128 410 c 2
 576 410 l 2
 593 410 608 404 621 391 c 0
 634 378 640 363 640 346 c 2
1523 1146 m 0
 1523 1137 1520 1130 1513 1123 c 2
 1309 919 l 1
 1453 775 l 2
 1466 762 1472 747 1472 730 c 0
 1472 713 1466 698 1453 685 c 0
 1440 672 1425 666 1408 666 c 2
 960 666 l 2
 943 666 928 672 915 685 c 0
 902 698 896 713 896 730 c 2
 896 1178 l 2
 896 1195 902 1210 915 1223 c 0
 928 1236 943 1242 960 1242 c 0
 977 1242 997 1239 1005 1223 c 1
 1149 1079 l 1
 1353 1283 l 2
 1360 1290 1367 1293 1376 1293 c 0
 1385 1293 1392 1290 1399 1283 c 2
 1513 1169 l 2
 1520 1162 1523 1155 1523 1146 c 0
640 730 m 2
 640 713 634 698 621 685 c 0
 608 672 593 666 576 666 c 2
 128 666 l 2
 111 666 96 672 83 685 c 0
 70 698 64 713 64 730 c 0
 64 747 70 762 83 775 c 2
 227 919 l 1
 23 1123 l 2
 16 1130 13 1137 13 1146 c 0
 13 1155 16 1162 23 1169 c 2
 137 1283 l 2
 144 1290 151 1293 160 1293 c 0
 169 1293 176 1290 183 1283 c 2
 387 1079 l 1
 531 1223 l 2
 544 1236 559 1242 576 1242 c 0
 593 1242 608 1236 621 1223 c 0
 634 1210 640 1195 640 1178 c 2
 640 730 l 2
1523 -70 m 0
 1523 -79 1520 -86 1513 -93 c 2
 1399 -207 l 2
 1392 -214 1385 -217 1376 -217 c 0
 1367 -217 1360 -214 1353 -207 c 2
 1149 -3 l 1
 1005 -147 l 2
 992 -160 977 -166 960 -166 c 0
 943 -166 928 -160 915 -147 c 0
 902 -134 896 -119 896 -102 c 2
 896 346 l 2
 896 363 902 378 915 391 c 0
 928 404 943 410 960 410 c 2
 1408 410 l 2
 1425 410 1440 404 1453 391 c 0
 1466 378 1472 363 1472 346 c 0
 1472 329 1466 314 1453 301 c 2
 1309 157 l 1
 1513 -47 l 2
 1520 -54 1523 -61 1523 -70 c 0
EndSplineSet
Validated: 1
EndChar

StartChar: uniE014
Encoding: 57364 57364 16
Width: 1792
VWidth: 0
Flags: H
LayerCount: 2
Fore
SplineSet
160 1536 m 2
 1504 1536 l 2
 1548 1536 1586 1520 1617 1489 c 0
 1648 1458 1664 1420 1664 1376 c 2
 1664 160 l 2
 1664 116 1648 78 1617 47 c 0
 1586 16 1548 0 1504 0 c 2
 160 0 l 2
 116 0 78 16 47 47 c 0
 16 78 0 116 0 160 c 2
 0 1376 l 2
 0 1420 16 1458 47 1489 c 0
 78 1520 116 1536 160 1536 c 2
128 1280 m 1
 128 768 l 1
 1536 768 l 1
 1536 1280 l 1
 128 1280 l 1
128 640 m 1
 128 160 l 1
 138 138 l 1
 160 128 l 1
 1504 128 l 2
 1513 128 1520 131 1526 138 c 0
 1533 144 1536 151 1536 160 c 2
 1536 640 l 1
 128 640 l 1
EndSplineSet
Validated: 1
EndChar

StartChar: uniE015
Encoding: 57365 57365 17
Width: 1792
VWidth: 0
Flags: H
LayerCount: 2
Fore
SplineSet
160 1536 m 2
 1504 1536 l 2
 1548 1536 1586 1520 1617 1489 c 0
 1648 1458 1664 1420 1664 1376 c 2
 1664 160 l 2
 1664 116 1648 78 1617 47 c 0
 1586 16 1548 0 1504 0 c 2
 160 0 l 2
 116 0 78 16 47 47 c 0
 16 78 0 116 0 160 c 2
 0 1376 l 2
 0 1420 16 1458 47 1489 c 0
 78 1520 116 1536 160 1536 c 2
128 1280 m 1
 128 160 l 1
 138 138 l 1
 160 128 l 1
 1504 128 l 2
 1513 128 1520 131 1526 138 c 0
 1533 144 1536 151 1536 160 c 2
 1536 1280 l 1
 128 1280 l 1
EndSplineSet
Validated: 1
EndChar

StartChar: uniE016
Encoding: 57366 57366 18
Width: 1792
VWidth: 0
Flags: H
LayerCount: 2
Fore
SplineSet
160 1536 m 2
 1504 1536 l 2
 1548 1536 1586 1520 1617 1489 c 0
 1648 1458 1664 1420 1664 1376 c 2
 1664 160 l 2
 1664 116 1648 78 1617 47 c 0
 1586 16 1548 0 1504 0 c 2
 160 0 l 2
 116 0 78 16 47 47 c 0
 16 78 0 116 0 160 c 2
 0 1376 l 2
 0 1420 16 1458 47 1489 c 0
 78 1520 116 1536 160 1536 c 2
128 1280 m 1
 128 160 l 1
 138 138 l 1
 160 128 l 1
 1504 128 l 2
 1513 128 1520 131 1526 138 c 0
 1533 144 1536 151 1536 160 c 2
 1536 1280 l 1
 128 1280 l 1
192 1216 m 1
 768 1216 l 1
 768 896 l 1
 1024 896 l 1
 1024 1152 l 1
 1535 704 l 1
 1024 192 l 1
 1024 512 l 1
 768 512 l 1
 768 192 l 1
 192 192 l 1
 192 1216 l 1
EndSplineSet
Validated: 1
EndChar

StartChar: uniE017
Encoding: 57367 57367 19
Width: 1792
VWidth: 0
Flags: H
LayerCount: 2
Fore
SplineSet
160 1536 m 2
 1504 1536 l 2
 1548 1536 1586 1520 1617 1489 c 0
 1648 1458 1664 1420 1664 1376 c 2
 1664 160 l 2
 1664 116 1648 78 1617 47 c 0
 1586 16 1548 0 1504 0 c 2
 160 0 l 2
 116 0 78 16 47 47 c 0
 16 78 0 116 0 160 c 2
 0 1376 l 2
 0 1420 16 1458 47 1489 c 0
 78 1520 116 1536 160 1536 c 2
128 1280 m 1
 128 128 l 1
 1504 128 l 2
 1513 128 1520 131 1526 138 c 0
 1533 144 1536 151 1536 160 c 2
 1536 1280 l 1
 128 1280 l 1
1024 192 m 1
 192 192 l 1
 192 1216 l 1
 1024 1216 l 1
 1024 896 l 1
 768 896 l 1
 768 1152 l 1
 256 704 l 1
 768 256 l 1
 768 512 l 1
 1024 512 l 1
 1024 192 l 1
EndSplineSet
Validated: 1
EndChar

StartChar: uniE018
Encoding: 57368 57368 20
Width: 1792
VWidth: 0
Flags: H
LayerCount: 2
Fore
SplineSet
512 -102 m 1
 128 -102 l 1
 128 1178 l 1
 512 1178 l 1
 512 1050 l 1
 256 1050 l 1
 256 26 l 1
 512 26 l 1
 512 -102 l 1
1664 -102 m 1
 1280 -102 l 1
 1280 26 l 1
 1536 26 l 1
 1536 1050 l 1
 1280 1050 l 1
 1280 1178 l 1
 1666 1178 l 1
 1664 -102 l 1
636 921 m 1
 768 922 l 1
 830 761 932 523 969 410 c 1
 1006 486 1004 487 1024 538 c 2
 1152 922 l 1
 1280 922 l 1
 1024 154 l 2
 996 80 956 -12 920 -49 c 0
 883 -86 833 -115 768 -115 c 0
 733 -115 674 -109 640 -102 c 2
 640 26 l 2
 666 21 736 11 768 10 c 0
 770 10 772 10 774 10 c 0
 796 10 814 15 823 26 c 0
 842 49 855 78 872 121 c 2
 914 221 l 1
 636 921 l 1
EndSplineSet
Validated: 1
EndChar

StartChar: uniE019
Encoding: 57369 57369 21
Width: 1792
VWidth: 0
Flags: H
LayerCount: 2
Fore
SplineSet
0 1178 m 1
 768 1178 l 1
 768 154 l 1
 0 154 l 1
 0 1178 l 1
640 -102 m 1
 640 26 l 1
 896 26 l 1
 896 1306 l 1
 640 1306 l 1
 640 1434 l 1
 1280 1434 l 1
 1280 1306 l 1
 1024 1306 l 1
 1024 26 l 1
 1280 26 l 1
 1280 -102 l 1
 640 -102 l 1
1152 1178 m 1
 1792 666 l 1
 1152 154 l 1
 1152 1178 l 1
EndSplineSet
Validated: 1
EndChar

StartChar: uniE01A
Encoding: 57370 57370 22
Width: 1792
VWidth: 0
Flags: H
LayerCount: 2
Fore
SplineSet
1152 1050 m 1
 1792 1050 l 1
 1792 922 l 1
 1536 922 l 1
 1536 26 l 1
 1792 26 l 1
 1792 -102 l 1
 1152 -102 l 1
 1152 26 l 1
 1408 26 l 1
 1408 922 l 1
 1152 922 l 1
 1152 1050 l 1
0 794 m 1
 1280 794 l 1
 1280 154 l 1
 0 154 l 1
 0 794 l 1
0 1690 m 1
 1664 1690 l 1
 1664 1178 l 1
 0 1178 l 1
 0 1690 l 1
EndSplineSet
Validated: 1
EndChar

StartChar: uniE01B
Encoding: 57371 57371 23
Width: 1792
VWidth: 0
Flags: H
LayerCount: 2
Fore
SplineSet
256 1690 m 1
 384 1690 l 1
 384 1562 l 1
 640 1562 l 1
 640 1626 l 2
 640 1643 647 1659 659 1671 c 0
 671 1683 687 1690 704 1690 c 2
 960 1690 l 2
 977 1690 993 1683 1005 1671 c 0
 1017 1659 1024 1643 1024 1626 c 2
 1024 1370 l 2
 1024 1353 1017 1337 1005 1325 c 0
 993 1313 977 1306 960 1306 c 2
 896 1306 l 1
 896 1178 l 1
 1216 1178 l 1
 1216 1242 l 2
 1216 1277 1245 1306 1280 1306 c 2
 1536 1306 l 2
 1571 1306 1600 1277 1600 1242 c 2
 1600 986 l 2
 1600 951 1571 922 1536 922 c 2
 1280 922 l 2
 1245 922 1216 951 1216 986 c 2
 1216 1050 l 1
 896 1050 l 1
 896 666 l 1
 1216 666 l 1
 1216 730 l 2
 1216 765 1245 794 1280 794 c 2
 1536 794 l 2
 1571 794 1600 765 1600 730 c 2
 1600 474 l 2
 1600 439 1571 410 1536 410 c 2
 1280 410 l 2
 1245 410 1216 439 1216 474 c 2
 1216 538 l 1
 832 538 l 1
 768 538 l 1
 768 602 l 1
 768 1306 l 1
 704 1306 l 2
 687 1306 671 1313 659 1325 c 0
 647 1337 640 1353 640 1370 c 2
 640 1434 l 1
 384 1434 l 1
 384 154 l 1
 640 154 l 1
 640 218 l 2
 640 235 647 251 659 263 c 0
 671 275 687 282 704 282 c 2
 960 282 l 2
 977 282 993 275 1005 263 c 0
 1017 251 1024 235 1024 218 c 2
 1024 -38 l 2
 1024 -55 1017 -71 1005 -83 c 0
 993 -95 977 -102 960 -102 c 2
 704 -102 l 2
 687 -102 671 -95 659 -83 c 0
 647 -71 640 -55 640 -38 c 2
 640 26 l 1
 320 26 l 1
 256 26 l 1
 256 90 l 1
 256 1690 l 1
1344 1178 m 1
 1344 1050 l 1
 1472 1050 l 1
 1472 1178 l 1
 1344 1178 l 1
1344 666 m 1
 1344 538 l 1
 1472 538 l 1
 1472 666 l 1
 1344 666 l 1
EndSplineSet
Validated: 1
EndChar

StartChar: uniE01F
Encoding: 57375 57375 24
Width: 1792
VWidth: 0
Flags: H
LayerCount: 2
Fore
SplineSet
1131 734 m 0
 1131 819 1131 1069 761 1069 c 0
 589 1069 439 1010 346 971 c 1
 387 873 l 1
 561 950 681 965 759 965 c 0
 1022 965 1022 804 1022 734 c 2
 1022 667 l 1
 890 693 737 695 718 695 c 0
 356 695 256 484 256 366 c 0
 256 216 391 60 607 60 c 0
 785 60 933 164 1022 247 c 1
 1022 90 l 1
 1325 90 l 1
 1325 192 l 1
 1131 192 l 1
 1131 734 l 0
1022 392 m 0
 835 184 676 164 605 164 c 0
 483 164 374 255 374 364 c 0
 374 390 380 590 739 590 c 0
 859 590 972 575 1022 567 c 1
 1022 392 l 0
1536 538 m 0
 1536 399 1502 270 1433 152 c 0
 1364 35 1271 -58 1154 -127 c 0
 1036 -196 907 -230 768 -230 c 0
 629 -230 500 -196 382 -127 c 0
 265 -58 172 35 103 152 c 0
 34 270 -0 399 0 538 c 0
 0 677 34 806 103 924 c 0
 172 1041 265 1134 382 1203 c 0
 500 1272 629 1306 768 1306 c 0
 907 1306 1036 1272 1154 1203 c 0
 1271 1134 1364 1041 1433 924 c 0
 1502 806 1536 677 1536 538 c 0
EndSplineSet
Validated: 1
EndChar

StartChar: uniE020
Encoding: 57376 57376 25
Width: 1792
VWidth: 0
Flags: H
LayerCount: 2
Fore
SplineSet
1166 990 m 1
 1159 962 1155 938 1153 920 c 0
 1151 907 1142 872 1131 872 c 0
 1129 872 1125 877 1122 879 c 0
 996 983 885 994 803 994 c 0
 448 994 282 729 282 496 c 0
 282 220 489 -4 794 -4 c 0
 1035 -4 1229 137 1323 207 c 1
 1266 289 l 1
 1107 178 957 104 805 104 c 0
 520 104 400 318 400 498 c 0
 400 685 533 886 813 886 c 0
 1094 886 1129 720 1144 657 c 2
 1153 620 l 1
 1253 635 l 1
 1249 692 1246 738 1246 779 c 0
 1246 855 1260 936 1266 979 c 1
 1166 990 l 1
1536 538 m 0
 1536 399 1502 270 1433 152 c 0
 1364 35 1271 -58 1154 -127 c 0
 1036 -196 907 -230 768 -230 c 0
 629 -230 500 -196 382 -127 c 0
 265 -58 172 35 103 152 c 0
 34 270 -0 399 0 538 c 0
 0 677 34 806 103 924 c 0
 172 1041 265 1134 382 1203 c 0
 500 1272 629 1306 768 1306 c 0
 907 1306 1036 1272 1154 1203 c 0
 1271 1134 1364 1041 1433 924 c 0
 1502 806 1536 677 1536 538 c 0
EndSplineSet
Validated: 1
EndChar

StartChar: uniE021
Encoding: 57377 57377 26
Width: 1792
VWidth: 0
Flags: H
LayerCount: 2
Fore
SplineSet
339 757 m 1
 339 667 l 1
 565 667 l 1
 565 51 l 1
 339 51 l 1
 339 -38 l 1
 1138 -38 l 1
 1138 51 l 1
 674 51 l 1
 674 667 l 1
 1138 667 l 1
 1138 757 l 1
 674 757 l 1
 674 857 l 2
 674 960 674 1055 879 1055 c 0
 972 1055 1088 1046 1183 1025 c 1
 1229 1120 l 1
 1135 1135 1025 1150 907 1150 c 0
 594 1150 565 1019 565 863 c 2
 565 757 l 1
 339 757 l 1
1536 538 m 0
 1536 399 1502 270 1433 152 c 0
 1364 35 1271 -58 1154 -127 c 0
 1036 -196 907 -230 768 -230 c 0
 629 -230 500 -196 382 -127 c 0
 265 -58 172 35 103 152 c 0
 34 270 -0 399 0 538 c 0
 0 677 34 806 103 924 c 0
 172 1041 265 1134 382 1203 c 0
 500 1272 629 1306 768 1306 c 0
 907 1306 1036 1272 1154 1203 c 0
 1271 1134 1364 1041 1433 924 c 0
 1502 806 1536 677 1536 538 c 0
EndSplineSet
Validated: 1
EndChar

StartChar: uniE022
Encoding: 57378 57378 27
Width: 1792
VWidth: 0
Flags: H
LayerCount: 2
Fore
SplineSet
616 1207 m 1
 595 840 l 1
 396 840 l 1
 396 723 l 1
 589 723 l 1
 571 424 l 1
 396 424 l 1
 396 307 l 1
 564 307 l 1
 545 -76 l 1
 629 -76 l 1
 648 307 l 1
 910 307 l 1
 889 -76 l 1
 973 -76 l 1
 994 307 l 1
 1191 307 l 1
 1191 424 l 1
 1000 424 l 1
 1018 723 l 1
 1191 723 l 1
 1191 840 l 1
 1023 840 l 1
 1044 1207 l 1
 960 1207 l 1
 939 840 l 1
 679 840 l 1
 700 1207 l 1
 616 1207 l 1
933 723 m 1
 915 424 l 1
 656 424 l 1
 674 723 l 1
 933 723 l 1
1536 538 m 0
 1536 399 1502 270 1433 152 c 0
 1364 35 1271 -58 1154 -127 c 0
 1036 -196 907 -230 768 -230 c 0
 629 -230 500 -196 382 -127 c 0
 265 -58 172 35 103 152 c 0
 34 270 0 399 0 538 c 0
 0 677 34 806 103 924 c 0
 172 1041 265 1134 382 1203 c 0
 500 1272 629 1306 768 1306 c 0
 907 1306 1036 1272 1154 1203 c 0
 1271 1134 1364 1041 1433 924 c 0
 1502 806 1536 677 1536 538 c 0
EndSplineSet
Validated: 1
EndChar

StartChar: uniE023
Encoding: 57379 57379 28
Width: 1792
VWidth: 0
Flags: H
LayerCount: 2
Fore
SplineSet
256 925 m 1
 256 840 l 1
 378 840 l 1
 378 238 l 1
 256 238 l 1
 256 154 l 1
 589 154 l 1
 589 238 l 1
 467 238 l 1
 467 754 l 1
 498 792 552 855 639 855 c 0
 756 855 758 735 758 657 c 0
 758 654 758 651 758 649 c 2
 758 154 l 1
 958 154 l 1
 958 238 l 1
 847 238 l 1
 847 736 l 1
 914 830 973 855 1023 855 c 0
 1137 855 1138 746 1138 646 c 0
 1138 641 l 2
 1138 154 l 1
 1329 154 l 1
 1329 238 l 1
 1227 238 l 1
 1227 641 l 2
 1227 778 1215 817 1181 867 c 0
 1150 914 1082 944 1021 944 c 0
 937 944 869 892 817 831 c 1
 783 903 713 944 638 944 c 0
 552 944 489 887 484 882 c 2
 460 862 l 1
 460 925 l 1
 256 925 l 1
1536 538 m 0
 1536 399 1502 270 1433 152 c 0
 1364 35 1271 -58 1154 -127 c 0
 1036 -196 907 -230 768 -230 c 0
 629 -230 500 -196 382 -127 c 0
 265 -58 172 35 103 152 c 0
 34 270 -0 399 0 538 c 0
 0 677 34 806 103 924 c 0
 172 1041 265 1134 382 1203 c 0
 500 1272 629 1306 768 1306 c 0
 907 1306 1036 1272 1154 1203 c 0
 1271 1134 1364 1041 1433 924 c 0
 1502 806 1536 677 1536 538 c 0
EndSplineSet
Validated: 1
EndChar

StartChar: uniE024
Encoding: 57380 57380 29
Width: 1792
VWidth: 0
Flags: H
LayerCount: 2
Fore
SplineSet
975 479 m 0
 808 479 722 347 722 239 c 0
 722 130 810 1 975 1 c 0
 1138 1 1229 126 1229 239 c 0
 1229 350 1141 479 975 479 c 0
975 395 m 0
 1079 395 1132 315 1132 241 c 0
 1132 164 1077 85 975 85 c 0
 878 85 819 160 819 241 c 0
 819 318 876 395 975 395 c 0
589 1126 m 0
 426 1126 337 997 337 886 c 0
 337 771 430 648 589 648 c 0
 751 648 844 770 844 886 c 0
 844 999 754 1126 589 1126 c 0
591 1042 m 0
 691 1042 747 965 747 886 c 0
 747 806 688 732 591 732 c 0
 491 732 433 809 433 886 c 0
 433 961 487 1042 591 1042 c 0
1139 779 m 1
 412 456 l 1
 448 372 l 1
 1175 694 l 1
 1139 779 l 1
1536 538 m 0
 1536 399 1502 270 1433 152 c 0
 1364 35 1271 -58 1154 -127 c 0
 1036 -196 907 -230 768 -230 c 0
 629 -230 500 -196 382 -127 c 0
 265 -58 172 35 103 152 c 0
 34 270 -0 399 0 538 c 0
 0 677 34 806 103 924 c 0
 172 1041 265 1134 382 1203 c 0
 500 1272 629 1306 768 1306 c 0
 907 1306 1036 1272 1154 1203 c 0
 1271 1134 1364 1041 1433 924 c 0
 1502 806 1536 677 1536 538 c 0
EndSplineSet
Validated: 1
EndChar

StartChar: uniE025
Encoding: 57381 57381 30
Width: 1792
VWidth: 0
Flags: H
LayerCount: 2
Fore
SplineSet
298 971 m 1
 298 874 l 1
 536 874 l 1
 536 186 l 1
 282 186 l 1
 282 90 l 1
 1027 90 l 1
 1027 186 l 1
 638 186 l 1
 638 635 l 1
 708 713 869 897 1046 897 c 0
 1127 897 1154 852 1175 821 c 0
 1175 817 1181 809 1183 807 c 2
 1291 887 l 1
 1246 940 1191 999 1062 999 c 0
 867 999 730 858 638 766 c 1
 638 971 l 1
 298 971 l 1
1536 538 m 0
 1536 399 1502 270 1433 152 c 0
 1364 35 1271 -58 1154 -127 c 0
 1036 -196 907 -230 768 -230 c 0
 629 -230 500 -196 382 -127 c 0
 265 -58 172 35 103 152 c 0
 34 270 -0 399 0 538 c 0
 0 677 34 806 103 924 c 0
 172 1041 265 1134 382 1203 c 0
 500 1272 629 1306 768 1306 c 0
 907 1306 1036 1272 1154 1203 c 0
 1271 1134 1364 1041 1433 924 c 0
 1502 806 1536 677 1536 538 c 0
EndSplineSet
Validated: 1
EndChar

StartChar: uniE001
Encoding: 57345 57345 31
Width: 1792
VWidth: 0
Flags: H
LayerCount: 2
Fore
SplineSet
20 1410 m 0
 27 1410 36 1405 45 1395 c 2
 755 685 l 2
 760 680 765 674 768 666 c 2
 768 1344 l 2
 768 1362 774 1377 787 1389 c 0
 800 1402 815 1408 832 1408 c 2
 960 1408 l 2
 977 1408 992 1402 1005 1389 c 0
 1018 1377 1024 1362 1024 1344 c 2
 1024 -64 l 2
 1024 -81 1018 -96 1005 -109 c 0
 992 -121 977 -128 960 -128 c 2
 832 -128 l 2
 815 -128 800 -121 787 -109 c 0
 774 -96 768 -81 768 -64 c 2
 768 614 l 2
 765 608 760 601 755 595 c 2
 45 -115 l 2
 32 -127 22 -132 13 -128 c 0
 4 -124 0 -113 0 -96 c 2
 0 1376 l 2
 0 1394 4 1404 13 1408 c 0
 15 1409 17 1410 20 1410 c 0
1219 1407 m 2
 1347 1407 l 2
 1364 1407 1379 1401 1392 1388 c 0
 1405 1375 1411 1360 1411 1343 c 2
 1411 -65 l 2
 1411 -82 1405 -97 1392 -110 c 0
 1379 -123 1364 -129 1347 -129 c 2
 1219 -129 l 2
 1202 -129 1187 -123 1174 -110 c 0
 1161 -97 1155 -82 1155 -65 c 2
 1155 1343 l 2
 1155 1360 1161 1375 1174 1388 c 0
 1187 1401 1202 1407 1219 1407 c 2
EndSplineSet
Validated: 1
EndChar

StartChar: uniE03A
Encoding: 57402 57402 32
Width: 1792
VWidth: 0
Flags: H
LayerCount: 2
Fore
SplineSet
-51 1562 m 2
 1331 1562 l 2
 1374 1562 1408 1529 1408 1487 c 2
 1408 -155 l 2
 1408 -197 1374 -230 1331 -230 c 2
 -51 -230 l 2
 -94 -230 -128 -197 -128 -155 c 2
 -128 1487 l 2
 -128 1529 -94 1562 -51 1562 c 2
EndSplineSet
Validated: 1
EndChar

StartChar: uniE03B
Encoding: 57403 57403 33
Width: 1792
VWidth: 0
Flags: HO
LayerCount: 2
Fore
SplineSet
-64 1178 m 2
 1344 1178 l 2
 1379 1178 1408 1149 1408 1114 c 2
 1408 474 l 2
 1408 439 1379 410 1344 410 c 2
 -64 410 l 2
 -99 410 -128 439 -128 474 c 2
 -128 1114 l 2
 -128 1149 -99 1178 -64 1178 c 2
EndSplineSet
EndChar

StartChar: uniE03C
Encoding: 57404 57404 34
Width: 1792
VWidth: 0
Flags: H
LayerCount: 2
Fore
SplineSet
1063 166 m 2
 1052 155 1043 152 1035 155 c 0
 1028 159 1024 167 1024 182 c 2
 1024 1407 l 2
 1024 1421 1028 1430 1035 1433 c 0
 1043 1437 1052 1433 1063 1423 c 2
 1685 832 l 2
 1689 827 1693 822 1696 816 c 1
 1696 1380 l 2
 1696 1395 1702 1407 1713 1418 c 0
 1724 1428 1737 1433 1752 1433 c 2
 1864 1433 l 2
 1879 1433 1892 1428 1903 1418 c 0
 1914 1407 1920 1395 1920 1380 c 2
 1920 208 l 2
 1920 194 1914 182 1903 171 c 0
 1892 160 1879 155 1864 155 c 2
 1752 155 l 2
 1737 155 1724 160 1713 171 c 0
 1702 182 1696 194 1696 208 c 2
 1696 773 l 1
 1693 767 1689 762 1685 757 c 2
 1063 166 l 2
EndSplineSet
Validated: 1
EndChar

StartChar: uniE03D
Encoding: 57405 57405 35
Width: 1792
VWidth: 0
Flags: H
LayerCount: 2
Fore
SplineSet
-128 794 m 1
 0 794 l 1
 0 742 l 1
 0 154 l 1
 128 154 l 1
 128 282 l 1
 384 90 l 1
 128 -102 l 1
 128 26 l 1
 52 26 -41 26 -128 26 c 1
 -128 90 l 1
 -128 794 l 1
EndSplineSet
Validated: 1
EndChar

StartChar: uniE03E
Encoding: 57406 57406 36
Width: 1792
VWidth: 0
Flags: H
LayerCount: 2
Fore
SplineSet
0 1242 m 2
 1280 1242 l 2
 1351 1242 1408 1185 1408 1114 c 1
 1408 1149 1379 1178 1344 1178 c 2
 -64 1178 l 2
 -99 1178 -128 1149 -128 1114 c 1
 -128 1185 -71 1242 0 1242 c 2
-128 474 m 1
 -128 439 -99 410 -64 410 c 2
 1344 410 l 2
 1379 410 1408 439 1408 474 c 1
 1408 403 1351 346 1280 346 c 2
 0 346 l 2
 -71 346 -128 403 -128 474 c 1
EndSplineSet
EndChar

StartChar: uniE03F
Encoding: 57407 57407 37
Width: 1792
VWidth: 0
Flags: H
LayerCount: 2
Fore
SplineSet
1408 1434 m 1
 1459 1434 l 2
 1502 1434 1536 1401 1536 1359 c 2
 1536 -283 l 2
 1536 -325 1502 -358 1459 -358 c 2
 77 -358 l 2
 34 -358 -0 -325 0 -283 c 2
 0 -230 l 1
 1331 -230 l 2
 1374 -230 1408 -197 1408 -155 c 2
 1408 1434 l 1
EndSplineSet
Validated: 1
EndChar
